<svg xmlns="http://www.w3.org/2000/svg" xmlns:xlink="http://www.w3.org/1999/xlink" width="500" zoomAndPan="magnify" viewBox="0 0 375 374.999991" height="500" preserveAspectRatio="xMidYMid meet" version="1.2"><defs><clipPath id="940db4e4e4"><path d="M 44.421875 119.179688 L 330.921875 119.179688 L 330.921875 255.679688 L 44.421875 255.679688 Z M 44.421875 119.179688 "/></clipPath></defs><g id="d0b0ce79e4"><rect x="0" width="375" y="0" height="374.999991" style="fill:#ffffff;fill-opacity:1;stroke:none;"/><rect x="0" width="375" y="0" height="374.999991" style="fill:#fffdf0;fill-opacity:1;stroke:none;"/><g clip-rule="nonzero" clip-path="url(#940db4e4e4)"><path style=" stroke:none;fill-rule:evenodd;fill:#000000;fill-opacity:1;" d="M 266.90625 119.25 C 264.570312 120.140625 262.378906 123.011719 260.957031 127.042969 C 260.808594 127.46875 260.632812 127.910156 260.570312 128.023438 C 260.511719 128.132812 260.339844 128.648438 260.195312 129.164062 C 260.046875 129.683594 259.878906 130.21875 259.816406 130.359375 C 259.757812 130.5 259.578125 131.160156 259.417969 131.828125 C 259.261719 132.496094 259.078125 133.242188 259.011719 133.480469 C 258.945312 133.722656 258.773438 134.621094 258.632812 135.484375 C 258.492188 136.34375 258.34375 137.121094 258.308594 137.210938 C 258.195312 137.476562 257.824219 140.410156 257.699219 142.027344 C 257.671875 142.386719 257.613281 142.757812 257.574219 142.847656 C 257.5 143.015625 257.324219 145.363281 257.148438 148.523438 C 257.007812 151.03125 257.007812 161.933594 257.148438 164.285156 C 257.296875 166.835938 257.492188 169.121094 257.570312 169.308594 C 257.609375 169.398438 257.699219 170.042969 257.773438 170.738281 C 257.953125 172.402344 258.21875 174.25 258.308594 174.453125 C 258.351562 174.542969 258.441406 174.96875 258.515625 175.394531 C 258.742188 176.710938 258.964844 177.785156 259.09375 178.171875 C 259.160156 178.375 259.34375 179.082031 259.5 179.746094 C 259.660156 180.410156 259.824219 181.015625 259.867188 181.09375 C 259.910156 181.171875 260.078125 181.746094 260.242188 182.375 C 260.402344 183.003906 260.5625 183.539062 260.59375 183.5625 C 260.625 183.582031 260.792969 184.117188 260.96875 184.746094 C 261.144531 185.375 261.335938 185.980469 261.394531 186.09375 C 261.453125 186.207031 261.636719 186.777344 261.800781 187.359375 C 261.964844 187.941406 262.125 188.4375 262.15625 188.460938 C 262.273438 188.546875 262.742188 190.511719 262.683594 190.691406 C 262.652344 190.789062 262.460938 191.21875 262.261719 191.648438 C 260.589844 195.171875 260.390625 195.539062 259.082031 197.527344 C 258.394531 198.574219 257.371094 199.964844 256.511719 201.019531 C 255.179688 202.65625 252.363281 205.691406 250.363281 207.640625 L 249.332031 208.648438 L 249.402344 208.210938 C 249.445312 207.972656 249.566406 207.117188 249.675781 206.308594 C 249.789062 205.5 249.914062 204.617188 249.957031 204.347656 C 250.0625 203.691406 250.34375 200.535156 250.453125 198.710938 C 250.503906 197.902344 250.597656 196.542969 250.664062 195.6875 C 250.828125 193.539062 250.824219 187.609375 250.660156 185.683594 C 250.59375 184.898438 250.480469 183.539062 250.410156 182.664062 C 250.253906 180.757812 249.988281 178.535156 249.886719 178.253906 C 249.84375 178.140625 249.734375 177.566406 249.636719 176.976562 C 249.363281 175.304688 248.804688 172.871094 248.328125 171.300781 C 247.941406 170.027344 246.921875 166.953125 246.851562 166.859375 C 246.820312 166.8125 246.652344 166.390625 246.480469 165.917969 C 246.3125 165.449219 246.140625 165.023438 246.105469 164.972656 C 246.066406 164.925781 245.945312 164.636719 245.828125 164.332031 C 245.363281 163.097656 242.847656 158.042969 242.222656 157.078125 C 242.113281 156.914062 242.023438 156.757812 242.023438 156.734375 C 242.023438 156.703125 241.433594 155.714844 240.609375 154.363281 C 240.316406 153.886719 239.539062 152.714844 238.796875 151.636719 C 238.566406 151.308594 238.289062 150.902344 238.175781 150.738281 C 238.0625 150.574219 237.84375 150.269531 237.6875 150.0625 C 237.527344 149.855469 237.34375 149.601562 237.277344 149.5 C 237.015625 149.109375 235.398438 147.082031 234.253906 145.714844 C 231.828125 142.808594 228.203125 139.230469 225.320312 136.898438 C 224.941406 136.59375 224.5625 136.285156 224.480469 136.21875 C 224.210938 136.003906 222.011719 134.363281 221.472656 133.976562 C 220.445312 133.242188 217.859375 131.550781 217.179688 131.167969 C 216.957031 131.039062 216.714844 130.890625 216.648438 130.835938 C 216.582031 130.785156 216.324219 130.628906 216.074219 130.492188 C 215.828125 130.359375 215.183594 129.996094 214.644531 129.695312 C 213.574219 129.089844 210.871094 127.757812 210.019531 127.414062 C 209.726562 127.296875 209.394531 127.152344 209.28125 127.089844 C 209.167969 127.027344 208.691406 126.84375 208.21875 126.675781 C 207.746094 126.507812 207.265625 126.324219 207.152344 126.265625 C 207.042969 126.207031 206.542969 126.042969 206.050781 125.898438 C 205.554688 125.75 205.113281 125.605469 205.066406 125.574219 C 205.023438 125.539062 204.433594 125.375 203.757812 125.210938 C 203.082031 125.042969 202.363281 124.855469 202.160156 124.792969 C 201.714844 124.652344 200.390625 124.402344 199.171875 124.226562 C 198.679688 124.15625 198.164062 124.066406 198.027344 124.023438 C 195.957031 123.375 183.191406 123.148438 177.480469 123.660156 C 175.480469 123.839844 172.097656 124.367188 170.8125 124.703125 C 170.5625 124.769531 169.742188 124.972656 168.988281 125.152344 C 168.230469 125.335938 167.566406 125.511719 167.511719 125.546875 C 167.457031 125.582031 166.898438 125.761719 166.269531 125.949219 C 164.917969 126.351562 163.0625 126.976562 162.832031 127.109375 C 162.742188 127.160156 162.339844 127.3125 161.941406 127.449219 C 161.542969 127.585938 161.117188 127.753906 161 127.820312 C 160.882812 127.886719 160.433594 128.070312 160.007812 128.230469 C 159.578125 128.390625 159.15625 128.566406 159.066406 128.625 C 158.976562 128.679688 158.734375 128.792969 158.535156 128.871094 C 157.542969 129.257812 153.910156 131.054688 152.308594 131.949219 C 151.882812 132.183594 151.246094 132.539062 150.890625 132.738281 C 150.535156 132.933594 150.148438 133.160156 150.03125 133.242188 C 149.914062 133.324219 149.375 133.660156 148.832031 133.984375 C 148.292969 134.3125 147.777344 134.648438 147.683594 134.734375 C 147.589844 134.816406 147.484375 134.882812 147.453125 134.882812 C 147.417969 134.882812 146.925781 135.203125 146.359375 135.597656 C 145.792969 135.992188 145.132812 136.449219 144.894531 136.613281 C 144.519531 136.867188 143.226562 137.859375 142.089844 138.761719 C 141.707031 139.066406 140.976562 139.679688 139.867188 140.640625 C 137.945312 142.296875 134.871094 145.5625 133.324219 147.582031 C 133.210938 147.730469 132.894531 148.136719 132.621094 148.492188 C 131.941406 149.371094 130.683594 151.207031 129.988281 152.324219 C 128.234375 155.152344 126.632812 158.296875 125.660156 160.816406 C 125.503906 161.21875 125.328125 161.640625 125.269531 161.753906 C 125.207031 161.867188 125.039062 162.324219 124.890625 162.773438 C 124.746094 163.222656 124.59375 163.628906 124.5625 163.671875 C 124.527344 163.71875 124.347656 164.246094 124.164062 164.839844 C 123.980469 165.4375 123.792969 165.992188 123.753906 166.070312 C 123.710938 166.148438 123.539062 166.746094 123.375 167.394531 C 123.207031 168.042969 123.039062 168.636719 123 168.710938 C 122.960938 168.789062 122.78125 169.484375 122.601562 170.261719 C 122.421875 171.042969 122.222656 171.898438 122.15625 172.167969 C 122.089844 172.4375 121.921875 173.320312 121.78125 174.128906 C 121.644531 174.9375 121.496094 175.726562 121.457031 175.882812 C 121.359375 176.265625 121.167969 177.601562 120.917969 179.683594 C 120.800781 180.625 120.675781 181.652344 120.636719 181.96875 C 120.535156 182.742188 120.332031 185.621094 120.207031 188.011719 C 120.035156 191.371094 120.082031 201.257812 120.304688 208.023438 C 120.570312 215.996094 120.570312 226.351562 120.304688 225.664062 C 120.269531 225.574219 120.1875 224.839844 120.117188 224.03125 C 120.046875 223.222656 119.917969 221.882812 119.828125 221.050781 C 119.734375 220.21875 119.585938 218.804688 119.488281 217.90625 C 119.394531 217.007812 119.285156 216.199219 119.246094 216.109375 C 119.207031 216.019531 119.023438 214.566406 118.835938 212.882812 C 118.652344 211.199219 118.464844 209.691406 118.421875 209.535156 C 118.347656 209.25 118.21875 208.070312 117.976562 205.53125 C 117.90625 204.789062 117.8125 203.855469 117.765625 203.449219 C 117.472656 200.835938 117.363281 198.671875 117.363281 195.617188 C 117.363281 193.363281 117.464844 190.917969 117.609375 189.6875 C 117.757812 188.417969 118.171875 185.453125 118.292969 184.785156 C 118.578125 183.1875 119.167969 180.328125 119.234375 180.210938 C 119.269531 180.144531 119.4375 179.429688 119.609375 178.621094 C 119.777344 177.8125 119.949219 177.074219 119.992188 176.980469 C 120.039062 176.890625 120.234375 176.117188 120.429688 175.265625 C 120.625 174.414062 120.828125 173.554688 120.878906 173.351562 C 120.972656 172.984375 121.414062 170.777344 121.703125 169.226562 C 121.785156 168.777344 121.933594 167.730469 122.027344 166.898438 C 122.125 166.070312 122.238281 165.261719 122.28125 165.101562 C 122.773438 163.175781 122.746094 148.242188 122.230469 139.414062 C 122.210938 139.054688 122.152344 137.863281 122.105469 136.761719 C 121.984375 134 121.710938 131.148438 121.542969 130.921875 C 121.507812 130.875 121.433594 130.621094 121.378906 130.351562 C 121.082031 128.917969 120.617188 128.265625 119.90625 128.265625 C 119.152344 128.265625 118.820312 128.601562 118.582031 129.613281 C 118.527344 129.839844 118.453125 130.097656 118.417969 130.1875 C 118.058594 131.042969 117.957031 135.210938 118.125 142.042969 C 118.296875 148.941406 118.167969 151.964844 117.734375 151.328125 C 117.054688 150.332031 116.871094 144.898438 117.273438 137.742188 C 117.578125 132.25 117.570312 130.613281 117.230469 129.300781 C 116.386719 126.03125 113.847656 126.605469 113.140625 130.226562 C 113.109375 130.382812 113.058594 130.550781 113.023438 130.59375 C 112.957031 130.683594 112.726562 132.097656 112.621094 133.085938 C 112.558594 133.652344 112.550781 133.609375 112.539062 132.515625 C 112.527344 131.3125 112.433594 130.324219 112.289062 129.867188 C 112.246094 129.726562 112.128906 129.339844 112.023438 129.003906 C 111.277344 126.574219 109.136719 126.140625 108.191406 128.226562 C 107.332031 130.117188 107.132812 132.550781 107.128906 141.140625 C 107.128906 146.277344 107.050781 148.699219 106.886719 148.878906 C 106.757812 149.011719 106.679688 146.953125 106.699219 143.785156 C 106.714844 140.617188 106.734375 140.097656 107.011719 136.148438 C 107.089844 135.042969 107.152344 133.050781 107.160156 131.574219 L 107.171875 128.960938 L 106.882812 128.308594 C 106.398438 127.207031 105.484375 127.042969 104.695312 127.917969 C 104.089844 128.585938 103.117188 131.53125 103.117188 132.695312 C 103.117188 132.800781 103.085938 132.925781 103.046875 132.96875 C 102.746094 133.285156 102.488281 137.863281 102.375 144.804688 C 102.285156 150.320312 102.175781 152.234375 101.59375 158.039062 C 101.25 161.5 101.339844 164.191406 101.890625 166.902344 C 102.082031 167.839844 102.832031 170.277344 103.039062 170.636719 C 103.082031 170.714844 103.261719 171.148438 103.4375 171.597656 C 103.964844 172.941406 104.523438 174.285156 104.59375 174.375 C 104.628906 174.417969 104.792969 174.894531 104.957031 175.433594 C 105.121094 175.972656 105.289062 176.472656 105.328125 176.546875 C 105.777344 177.390625 106.382812 183.441406 106.292969 186.214844 L 106.269531 186.863281 L 105.882812 186.089844 C 104.21875 182.761719 101.90625 180.371094 98.675781 178.632812 C 97.441406 177.972656 95.46875 177.234375 94.484375 177.066406 C 94.304688 177.039062 94.117188 176.980469 94.074219 176.945312 C 93.492188 176.46875 87.09375 176.46875 86.1875 176.941406 C 86.113281 176.980469 85.660156 177.109375 85.179688 177.222656 C 84.398438 177.40625 83.507812 177.710938 82.394531 178.175781 C 78.664062 179.726562 74.332031 183.707031 72.558594 187.210938 L 72.34375 187.636719 L 71.628906 187.308594 C 71.234375 187.128906 70.8125 186.929688 70.695312 186.867188 C 67.507812 185.136719 60.199219 184.398438 56.21875 185.402344 C 55.96875 185.464844 55.292969 185.628906 54.714844 185.765625 C 54.132812 185.902344 53.542969 186.066406 53.402344 186.128906 C 53.261719 186.191406 52.945312 186.304688 52.699219 186.382812 C 50.605469 187.027344 47.316406 188.761719 45.101562 190.382812 L 44.433594 190.871094 L 44.429688 191.832031 C 44.429688 192.359375 44.449219 192.789062 44.476562 192.789062 C 44.5 192.789062 44.898438 192.484375 45.355469 192.113281 C 47.113281 190.6875 50.679688 188.589844 52.042969 188.179688 C 52.15625 188.144531 52.550781 187.992188 52.917969 187.84375 C 53.285156 187.691406 54.023438 187.453125 54.554688 187.316406 C 55.085938 187.179688 55.59375 187.03125 55.683594 186.988281 C 57.351562 186.191406 64.433594 186.21875 66.734375 187.027344 C 66.914062 187.09375 67.398438 187.238281 67.808594 187.351562 C 69.085938 187.699219 71.605469 188.839844 71.605469 189.0625 C 71.605469 189.117188 71.554688 189.234375 71.488281 189.324219 C 71.425781 189.417969 71.246094 189.855469 71.085938 190.304688 C 70.929688 190.75 70.742188 191.257812 70.664062 191.433594 C 70.589844 191.609375 70.402344 192.308594 70.242188 192.984375 C 70.085938 193.664062 69.925781 194.347656 69.886719 194.507812 C 69.601562 195.683594 69.570312 200.035156 69.835938 201.203125 C 70.515625 204.195312 71.277344 205.839844 72.679688 207.363281 C 73.5 208.253906 74.28125 208.710938 75.753906 209.160156 C 76.207031 209.296875 77.457031 209.339844 77.53125 209.21875 C 77.558594 209.179688 77.734375 209.121094 77.921875 209.09375 C 79.269531 208.878906 80.777344 207.492188 81.347656 205.953125 C 81.441406 205.699219 81.566406 205.382812 81.628906 205.246094 C 82.023438 204.390625 82.167969 201.546875 81.894531 200.019531 C 81.453125 197.566406 80.167969 194.851562 78.394531 192.628906 C 77.363281 191.328125 75.214844 189.398438 73.960938 188.636719 C 73.570312 188.398438 73.570312 188.394531 74.082031 187.5625 C 75.890625 184.628906 78.640625 181.890625 81.222656 180.460938 C 81.492188 180.308594 81.761719 180.152344 81.820312 180.105469 C 82.304688 179.730469 85.011719 178.695312 86.339844 178.375 C 88.652344 177.820312 93.230469 177.90625 94.523438 178.535156 C 94.636719 178.589844 95.023438 178.71875 95.382812 178.820312 C 99.214844 179.910156 103.332031 183.667969 104.960938 187.5625 C 105.082031 187.855469 105.253906 188.25 105.339844 188.441406 C 105.832031 189.53125 106.402344 191.914062 106.59375 193.691406 C 106.664062 194.339844 106.761719 195.058594 106.808594 195.28125 C 107.058594 196.464844 107.136719 205.300781 106.902344 205.742188 C 106.855469 205.828125 106.777344 206.636719 106.730469 207.539062 C 106.582031 210.257812 106.230469 214.945312 106.144531 215.25 C 106.023438 215.703125 105.414062 224.285156 105.410156 225.585938 C 105.410156 225.9375 105.371094 226.203125 105.308594 226.265625 C 105.160156 226.414062 105.160156 235.941406 105.308594 236.089844 C 105.363281 236.148438 105.410156 236.378906 105.410156 236.605469 C 105.410156 238.488281 106.222656 242.671875 106.863281 244.082031 C 106.957031 244.285156 107.128906 244.679688 107.246094 244.960938 C 109.921875 251.34375 116.753906 250.597656 118.976562 243.683594 C 119.101562 243.296875 119.230469 242.960938 119.265625 242.933594 C 119.34375 242.875 119.898438 240.449219 119.898438 240.160156 C 119.898438 240.042969 119.933594 239.914062 119.972656 239.871094 C 120.085938 239.757812 120.289062 238.03125 120.386719 236.363281 C 120.484375 234.730469 120.59375 233.851562 120.761719 233.375 C 120.878906 233.046875 121.191406 231.152344 121.414062 229.421875 C 121.484375 228.882812 121.574219 228.203125 121.613281 227.910156 C 122.019531 224.898438 121.945312 203.785156 121.523438 202.4375 C 121.402344 202.058594 121.394531 190.226562 121.511719 190.078125 C 121.558594 190.019531 121.621094 189.257812 121.648438 188.378906 C 121.710938 186.53125 121.980469 182.71875 122.144531 181.355469 C 122.566406 177.847656 123.164062 174.242188 123.695312 171.964844 C 124.117188 170.148438 124.558594 168.382812 124.636719 168.207031 C 124.683594 168.09375 124.820312 167.652344 124.9375 167.226562 C 125.28125 165.96875 126.714844 161.886719 126.976562 161.421875 C 127.039062 161.308594 127.171875 160.996094 127.273438 160.730469 C 127.464844 160.210938 129.035156 156.945312 129.441406 156.214844 C 131.832031 151.90625 134.183594 148.652344 137.371094 145.222656 C 139.140625 143.324219 141.339844 141.292969 143.390625 139.675781 C 143.773438 139.371094 144.234375 139.003906 144.414062 138.859375 C 144.59375 138.710938 144.945312 138.449219 145.191406 138.269531 C 145.4375 138.09375 145.679688 137.917969 145.722656 137.886719 C 146.996094 136.910156 150.472656 134.667969 152.09375 133.78125 C 152.417969 133.601562 152.777344 133.394531 152.886719 133.320312 C 153.105469 133.179688 156.230469 131.535156 156.28125 131.535156 C 156.3125 131.535156 158.199219 130.648438 158.984375 130.265625 C 159.890625 129.820312 162.328125 128.832031 163.730469 128.339844 C 164.226562 128.167969 164.695312 127.988281 164.773438 127.941406 C 164.851562 127.894531 165.414062 127.714844 166.019531 127.535156 C 166.625 127.359375 167.1875 127.179688 167.269531 127.136719 C 167.347656 127.09375 167.949219 126.925781 168.601562 126.765625 C 169.253906 126.601562 169.847656 126.4375 169.917969 126.394531 C 169.988281 126.355469 170.742188 126.191406 171.59375 126.027344 C 172.445312 125.863281 173.347656 125.675781 173.59375 125.613281 C 174.441406 125.398438 178.914062 124.921875 180.105469 124.917969 C 180.378906 124.917969 180.640625 124.878906 180.6875 124.832031 C 180.8125 124.707031 187.976562 124.640625 189.964844 124.746094 C 193.671875 124.945312 197.738281 125.335938 198.925781 125.609375 C 199.199219 125.671875 200.113281 125.859375 200.960938 126.019531 C 201.808594 126.183594 202.566406 126.347656 202.640625 126.390625 C 202.714844 126.433594 203.285156 126.597656 203.910156 126.753906 C 204.53125 126.914062 205.140625 127.09375 205.257812 127.152344 C 205.378906 127.210938 205.917969 127.398438 206.457031 127.570312 C 207 127.738281 207.480469 127.910156 207.53125 127.949219 C 207.582031 127.992188 207.820312 128.09375 208.0625 128.175781 C 209.503906 128.675781 213.835938 130.84375 215.503906 131.898438 C 215.660156 131.996094 216.140625 132.292969 216.566406 132.554688 C 223.292969 136.671875 228.910156 141.578125 233.941406 147.742188 C 235.378906 149.5 235.636719 149.835938 236.941406 151.625 C 237.441406 152.308594 239.296875 155.070312 239.628906 155.628906 C 241.589844 158.878906 243.355469 162.210938 244.15625 164.164062 C 244.304688 164.523438 244.46875 164.890625 244.523438 164.980469 C 244.578125 165.070312 244.742188 165.472656 244.890625 165.878906 C 245.035156 166.285156 245.1875 166.652344 245.226562 166.703125 C 245.421875 166.949219 246.6875 170.792969 247.132812 172.496094 C 247.324219 173.214844 247.519531 173.929688 247.570312 174.085938 C 247.621094 174.246094 247.777344 174.960938 247.917969 175.679688 C 248.058594 176.398438 248.210938 177.152344 248.257812 177.355469 C 248.414062 178.035156 248.730469 180.242188 248.898438 181.847656 C 248.992188 182.722656 249.101562 183.714844 249.140625 184.050781 C 249.449219 186.628906 249.449219 194.609375 249.140625 197.691406 C 249.097656 198.117188 249.007812 199.109375 248.941406 199.898438 C 248.726562 202.398438 248.402344 205.484375 248.324219 205.734375 C 248.28125 205.871094 248.113281 206.882812 247.949219 207.980469 C 247.585938 210.433594 247.75 210.15625 245.535156 212 C 245.335938 212.164062 244.917969 212.515625 244.601562 212.777344 C 244.113281 213.1875 243.492188 213.679688 241.859375 214.945312 C 241.703125 215.066406 241.148438 215.46875 240.632812 215.835938 C 240.113281 216.203125 239.566406 216.59375 239.414062 216.703125 C 238.269531 217.546875 234.730469 219.761719 233.433594 220.449219 C 233.191406 220.578125 232.675781 220.847656 232.289062 221.050781 C 231.902344 221.257812 231.511719 221.464844 231.421875 221.519531 C 231.015625 221.757812 227.714844 223.273438 227.375 223.378906 C 227.261719 223.414062 226.898438 223.566406 226.566406 223.71875 C 225.875 224.039062 225.816406 224.035156 226.125 223.691406 C 227.125 222.585938 229.449219 219.300781 230.65625 217.28125 C 231.785156 215.398438 232.152344 214.730469 232.980469 213.046875 C 233.367188 212.261719 233.734375 211.523438 233.792969 211.414062 C 233.984375 211.054688 234.804688 209.171875 234.992188 208.667969 C 235.089844 208.402344 235.253906 207.996094 235.355469 207.769531 C 235.460938 207.539062 235.644531 207.023438 235.769531 206.625 C 235.890625 206.226562 236.019531 205.863281 236.054688 205.816406 C 236.089844 205.773438 236.246094 205.3125 236.402344 204.792969 C 236.5625 204.273438 236.761719 203.632812 236.851562 203.363281 C 236.941406 203.097656 237.132812 202.382812 237.273438 201.773438 C 237.417969 201.167969 237.566406 200.597656 237.605469 200.507812 C 237.699219 200.308594 238.046875 198.554688 238.183594 197.609375 C 238.238281 197.226562 238.3125 196.878906 238.347656 196.832031 C 238.554688 196.554688 238.964844 191.917969 239.042969 188.953125 C 239.132812 185.4375 238.675781 178.414062 238.332031 178.050781 C 238.292969 178.007812 238.257812 177.894531 238.257812 177.796875 C 238.257812 177.492188 237.6875 174.390625 237.613281 174.296875 C 237.574219 174.25 237.515625 174.0625 237.484375 173.882812 C 237.390625 173.351562 236.960938 171.601562 236.863281 171.34375 C 236.8125 171.214844 236.621094 170.589844 236.441406 169.960938 C 236.261719 169.332031 236.085938 168.78125 236.050781 168.738281 C 236.015625 168.691406 235.851562 168.234375 235.683594 167.714844 C 235.511719 167.199219 235.347656 166.742188 235.3125 166.695312 C 235.277344 166.652344 235.113281 166.246094 234.949219 165.796875 C 234.78125 165.347656 234.597656 164.90625 234.542969 164.816406 C 234.488281 164.726562 234.355469 164.433594 234.246094 164.164062 C 234.027344 163.613281 232.621094 160.828125 232.308594 160.324219 C 230.261719 157.050781 229.121094 155.554688 226.960938 153.320312 C 224.507812 150.773438 221.308594 148.269531 217.835938 146.167969 C 217.386719 145.898438 216.871094 145.585938 216.691406 145.476562 C 216.511719 145.367188 216.160156 145.175781 215.914062 145.046875 C 215.664062 144.917969 215.40625 144.769531 215.339844 144.714844 C 215.195312 144.597656 211.457031 142.722656 211.367188 142.722656 C 211.335938 142.722656 211.097656 142.617188 210.839844 142.488281 C 210.582031 142.355469 210.117188 142.148438 209.804688 142.027344 C 209.496094 141.90625 209.09375 141.738281 208.914062 141.65625 C 208.277344 141.363281 206.285156 140.609375 205.679688 140.429688 C 205.34375 140.332031 205.03125 140.222656 204.984375 140.1875 C 204.878906 140.109375 203.746094 139.753906 203.019531 139.578125 C 202.707031 139.5 202.410156 139.410156 202.367188 139.375 C 202.285156 139.3125 200.839844 138.945312 200.277344 138.84375 C 200.121094 138.816406 199.753906 138.722656 199.460938 138.636719 C 198.882812 138.46875 197.582031 138.230469 196.117188 138.03125 C 195.605469 137.960938 195.035156 137.867188 194.847656 137.824219 C 192.785156 137.351562 184.757812 137.375 182.066406 137.863281 C 181.707031 137.925781 180.988281 138.039062 180.46875 138.109375 C 179.230469 138.277344 177.667969 138.5625 177.5625 138.640625 C 177.519531 138.671875 177.335938 138.726562 177.15625 138.753906 C 176.507812 138.863281 174.617188 139.308594 174.535156 139.371094 C 174.492188 139.40625 174.066406 139.53125 173.59375 139.65625 C 172.707031 139.882812 169.851562 140.8125 169.707031 140.921875 C 169.660156 140.953125 169.21875 141.121094 168.722656 141.292969 C 168.230469 141.464844 167.804688 141.628906 167.78125 141.660156 C 167.761719 141.6875 167.503906 141.800781 167.210938 141.90625 C 166.667969 142.097656 166.511719 142.171875 164.261719 143.222656 C 162.992188 143.816406 161.375 144.65625 160.457031 145.203125 C 160.1875 145.363281 159.78125 145.589844 159.558594 145.707031 C 159.113281 145.941406 158.753906 146.164062 157.304688 147.101562 C 155.820312 148.058594 155.515625 148.265625 154.652344 148.882812 C 154.207031 149.199219 153.691406 149.574219 153.5 149.707031 C 153.3125 149.84375 153.105469 150 153.042969 150.054688 C 152.976562 150.109375 152.519531 150.472656 152.027344 150.859375 C 151.53125 151.246094 150.996094 151.671875 150.839844 151.808594 C 150.679688 151.941406 150.390625 152.183594 150.195312 152.347656 C 147.027344 154.988281 142.042969 160.246094 140.148438 162.945312 C 140.019531 163.132812 139.691406 163.570312 139.425781 163.925781 C 138.667969 164.933594 136.597656 168.046875 136.3125 168.613281 C 136.234375 168.773438 136.121094 168.957031 136.0625 169.023438 C 135.859375 169.261719 134.726562 171.382812 133.960938 172.945312 C 132.882812 175.148438 132.710938 175.523438 132.496094 176.128906 C 132.394531 176.421875 132.265625 176.734375 132.210938 176.824219 C 132.15625 176.914062 131.992188 177.335938 131.84375 177.761719 C 131.699219 178.191406 131.554688 178.574219 131.519531 178.621094 C 131.4375 178.722656 130.785156 180.839844 130.785156 180.996094 C 130.785156 181.058594 130.753906 181.109375 130.714844 181.109375 C 130.675781 181.109375 130.507812 181.671875 130.339844 182.355469 C 130.175781 183.042969 130.003906 183.667969 129.960938 183.746094 C 129.917969 183.828125 129.753906 184.542969 129.601562 185.339844 C 129.445312 186.136719 129.261719 187.027344 129.195312 187.320312 C 128.953125 188.363281 128.613281 191.230469 128.523438 192.996094 C 128.492188 193.578125 128.433594 194.082031 128.386719 194.109375 C 128.265625 194.1875 128.277344 201.390625 128.398438 201.429688 C 128.457031 201.449219 128.492188 201.664062 128.496094 201.964844 C 128.496094 203.226562 128.964844 207.734375 129.1875 208.636719 C 129.246094 208.882812 129.359375 209.472656 129.433594 209.941406 C 129.636719 211.234375 129.882812 212.496094 129.96875 212.679688 C 130.011719 212.769531 130.140625 213.300781 130.257812 213.863281 C 130.472656 214.914062 130.578125 215.335938 130.707031 215.617188 C 130.746094 215.710938 130.910156 216.296875 131.070312 216.921875 C 131.234375 217.550781 131.417969 218.175781 131.480469 218.3125 C 131.542969 218.449219 131.703125 218.929688 131.835938 219.382812 C 131.96875 219.835938 132.152344 220.367188 132.238281 220.566406 C 132.328125 220.765625 132.503906 221.242188 132.625 221.621094 C 132.75 222.003906 132.894531 222.390625 132.949219 222.480469 C 133.003906 222.570312 133.164062 222.9375 133.300781 223.296875 C 133.742188 224.453125 135.765625 228.613281 136.058594 228.972656 C 136.113281 229.039062 136.257812 229.285156 136.375 229.515625 C 136.785156 230.316406 138.152344 232.375 139.238281 233.832031 C 139.582031 234.292969 140.398438 235.304688 140.992188 236.011719 C 141.320312 236.402344 141.589844 236.785156 141.589844 236.867188 C 141.589844 237.015625 145.253906 240.691406 145.832031 241.125 C 145.996094 241.246094 146.277344 241.484375 146.457031 241.652344 C 146.632812 241.820312 146.808594 241.960938 146.84375 241.960938 C 146.875 241.960938 147.011719 242.058594 147.140625 242.183594 C 147.269531 242.308594 147.550781 242.539062 147.761719 242.695312 C 147.976562 242.851562 148.414062 243.175781 148.738281 243.414062 C 149.0625 243.648438 149.527344 243.976562 149.773438 244.140625 C 150.023438 244.304688 150.242188 244.464844 150.265625 244.496094 C 150.324219 244.582031 152.144531 245.796875 152.214844 245.796875 C 152.246094 245.796875 152.378906 245.890625 152.511719 246.003906 C 152.640625 246.113281 152.972656 246.339844 153.246094 246.5 C 153.519531 246.660156 153.933594 246.90625 154.167969 247.050781 C 154.96875 247.542969 155.128906 247.636719 155.703125 247.945312 C 156.015625 248.113281 156.332031 248.300781 156.402344 248.359375 C 156.46875 248.414062 156.785156 248.585938 157.101562 248.738281 C 157.414062 248.886719 157.691406 249.039062 157.714844 249.070312 C 157.738281 249.105469 158.105469 249.289062 158.535156 249.484375 C 158.960938 249.675781 159.328125 249.855469 159.351562 249.878906 C 159.417969 249.953125 160.613281 250.453125 160.71875 250.453125 C 160.769531 250.453125 160.867188 250.507812 160.933594 250.574219 C 161 250.640625 161.417969 250.828125 161.859375 250.996094 C 162.304688 251.160156 162.742188 251.339844 162.832031 251.398438 C 162.921875 251.453125 163.417969 251.640625 163.9375 251.8125 C 164.453125 251.984375 164.894531 252.148438 164.917969 252.175781 C 164.941406 252.207031 165.4375 252.363281 166.023438 252.53125 C 166.609375 252.695312 167.144531 252.859375 167.210938 252.894531 C 167.414062 253.003906 168.171875 253.203125 169.257812 253.433594 C 169.820312 253.550781 170.339844 253.679688 170.414062 253.71875 C 170.546875 253.792969 172.339844 254.105469 173.882812 254.332031 C 174.332031 254.398438 174.921875 254.488281 175.191406 254.53125 C 175.460938 254.578125 177.042969 254.746094 178.710938 254.902344 C 180.375 255.0625 181.976562 255.226562 182.269531 255.269531 C 184.058594 255.527344 188.421875 255.695312 190.660156 255.597656 C 193.96875 255.453125 198.3125 254.714844 201.957031 253.683594 C 205.101562 252.796875 207.054688 252.148438 209.855469 251.066406 C 210.507812 250.816406 211.386719 250.484375 211.804688 250.335938 C 212.222656 250.1875 212.648438 249.988281 212.746094 249.898438 C 212.84375 249.804688 213.164062 249.640625 213.457031 249.53125 C 213.75 249.421875 214.214844 249.214844 214.492188 249.074219 C 214.765625 248.933594 215.015625 248.820312 215.046875 248.820312 C 215.09375 248.820312 216.386719 248.21875 217.222656 247.804688 C 217.945312 247.449219 220.121094 246.304688 220.496094 246.085938 C 220.742188 245.9375 221.3125 245.605469 221.765625 245.34375 C 224.542969 243.738281 228.488281 240.988281 230.652344 239.144531 C 230.8125 239.007812 231.144531 238.730469 231.386719 238.527344 C 234.007812 236.34375 237.160156 233.175781 239.105469 230.769531 C 243.003906 225.945312 245.773438 221.152344 247.226562 216.722656 C 247.382812 216.25 247.542969 215.804688 247.585938 215.730469 C 247.628906 215.65625 247.832031 214.976562 248.039062 214.222656 C 248.25 213.46875 248.433594 212.824219 248.453125 212.792969 C 248.472656 212.761719 248.582031 212.300781 248.699219 211.769531 C 248.828125 211.152344 248.957031 210.761719 249.042969 210.695312 C 249.628906 210.253906 252.878906 207.082031 254.207031 205.652344 C 255.855469 203.882812 255.808594 203.933594 256.691406 202.878906 C 256.957031 202.5625 257.3125 202.140625 257.480469 201.9375 C 257.988281 201.332031 259.316406 199.570312 259.75 198.929688 C 261.015625 197.050781 261.5625 196.070312 262.996094 193.128906 C 263.324219 192.457031 263.300781 192.445312 263.507812 193.527344 C 263.582031 193.90625 263.675781 194.292969 263.714844 194.382812 C 263.902344 194.800781 264.371094 198.554688 264.371094 199.65625 C 264.371094 199.917969 264.40625 200.15625 264.449219 200.183594 C 264.503906 200.214844 264.53125 201.054688 264.53125 202.433594 C 264.53125 203.847656 264.503906 204.632812 264.449219 204.632812 C 264.40625 204.632812 264.371094 204.878906 264.371094 205.199219 C 264.371094 206.332031 263.851562 211.886719 263.714844 212.1875 C 263.675781 212.277344 263.511719 213.453125 263.347656 214.800781 C 263.1875 216.148438 263 217.511719 262.933594 217.824219 C 262.824219 218.355469 262.394531 222.097656 262.28125 223.5 C 262.257812 223.835938 262.199219 224.242188 262.15625 224.398438 C 261.871094 225.433594 261.644531 233.667969 261.824219 236.609375 C 261.9375 238.5 262.078125 239.929688 262.160156 240.039062 C 262.191406 240.085938 262.246094 240.359375 262.277344 240.644531 C 262.597656 243.59375 263.960938 247.003906 265.175781 247.898438 C 266.882812 249.15625 268.964844 248.640625 270.515625 246.574219 C 271.476562 245.289062 272.882812 242.195312 272.882812 241.363281 C 272.882812 241.292969 272.917969 241.226562 272.960938 241.210938 C 273.167969 241.136719 273.847656 237.503906 274.078125 235.222656 C 274.265625 233.410156 274.296875 225.273438 274.128906 222.316406 C 274.074219 221.328125 273.96875 219.472656 273.898438 218.191406 C 273.828125 216.910156 273.738281 215.789062 273.699219 215.699219 C 273.664062 215.609375 273.535156 213.867188 273.417969 211.820312 C 273.027344 205.023438 272.953125 202.753906 273.105469 202.464844 C 273.152344 202.378906 273.292969 201.917969 273.414062 201.449219 C 273.539062 200.976562 273.675781 200.519531 273.722656 200.433594 C 273.765625 200.347656 273.945312 199.761719 274.125 199.132812 C 274.300781 198.5 274.476562 197.945312 274.511719 197.898438 C 274.550781 197.851562 274.71875 197.390625 274.886719 196.875 C 275.058594 196.359375 275.222656 195.898438 275.257812 195.855469 C 275.292969 195.808594 275.414062 195.53125 275.523438 195.238281 C 276.847656 191.726562 279.238281 188.03125 281.710938 185.671875 C 283.523438 183.9375 285.707031 182.539062 287.539062 181.933594 C 287.964844 181.792969 288.386719 181.644531 288.476562 181.605469 C 289.730469 181.027344 294.417969 181.023438 295.1875 181.601562 C 295.230469 181.632812 295.46875 181.726562 295.71875 181.808594 C 297.355469 182.339844 300.070312 184.25 299.769531 184.660156 C 298.816406 185.972656 297.347656 188.507812 296.941406 189.535156 C 296.847656 189.777344 296.738281 190.011719 296.695312 190.0625 C 296.65625 190.109375 296.492188 190.515625 296.332031 190.960938 C 296.171875 191.40625 295.988281 191.878906 295.925781 192.015625 C 295.863281 192.148438 295.695312 192.753906 295.550781 193.363281 C 295.40625 193.96875 295.261719 194.539062 295.222656 194.628906 C 294.554688 196.226562 294.964844 200.261719 295.9375 201.675781 C 296.664062 202.730469 298.722656 203.601562 299.285156 203.09375 C 299.328125 203.054688 299.542969 202.980469 299.761719 202.925781 C 301.132812 202.59375 302.707031 201.023438 303.453125 199.238281 C 303.578125 198.949219 303.707031 198.675781 303.742188 198.628906 C 303.839844 198.507812 304.207031 197.308594 304.316406 196.753906 C 304.371094 196.484375 304.445312 196.1875 304.484375 196.097656 C 304.800781 195.367188 304.796875 191.15625 304.480469 190.464844 C 304.441406 190.371094 304.34375 190.003906 304.269531 189.644531 C 303.929688 188.046875 303.035156 186.089844 302.050781 184.796875 L 301.777344 184.441406 L 301.957031 184.183594 C 302.953125 182.765625 306.445312 179.328125 308.242188 178.007812 C 308.515625 177.804688 308.785156 177.601562 308.839844 177.558594 C 309.078125 177.359375 310.890625 176.148438 311.734375 175.628906 C 312.476562 175.167969 315.007812 173.882812 315.8125 173.558594 C 316.210938 173.398438 316.578125 173.238281 316.625 173.199219 C 316.675781 173.160156 317.15625 172.992188 317.695312 172.824219 C 318.238281 172.652344 318.789062 172.46875 318.925781 172.410156 C 319.058594 172.351562 319.683594 172.1875 320.316406 172.042969 C 320.945312 171.902344 321.628906 171.734375 321.828125 171.675781 C 323.378906 171.222656 327.957031 171.011719 330.445312 171.28125 L 330.914062 171.332031 L 330.914062 169.9375 L 330.28125 169.867188 C 328.613281 169.6875 323.386719 169.839844 322.902344 170.082031 C 322.832031 170.117188 322.367188 170.210938 321.871094 170.285156 C 320.871094 170.441406 319.667969 170.699219 319.414062 170.816406 C 319.324219 170.855469 318.828125 171.003906 318.308594 171.148438 C 317.792969 171.289062 317.222656 171.46875 317.042969 171.550781 C 316.863281 171.632812 316.382812 171.816406 315.976562 171.960938 C 315.574219 172.109375 315.167969 172.269531 315.078125 172.324219 C 314.988281 172.378906 314.691406 172.511719 314.421875 172.617188 C 313.652344 172.921875 311.371094 174.117188 310.511719 174.664062 C 306.667969 177.125 303.742188 179.664062 301.269531 182.679688 L 300.753906 183.3125 L 300.386719 182.960938 C 299.746094 182.355469 297.976562 181.109375 297.753906 181.109375 C 297.722656 181.109375 297.386719 180.96875 297.011719 180.796875 C 296.640625 180.625 296.09375 180.417969 295.800781 180.339844 C 295.507812 180.257812 295.027344 180.125 294.738281 180.042969 C 293.574219 179.707031 291.078125 179.648438 289.621094 179.917969 C 288.789062 180.074219 287.136719 180.523438 286.757812 180.695312 C 286.574219 180.777344 286.226562 180.925781 285.976562 181.027344 C 282.320312 182.503906 278.617188 186.097656 276.175781 190.542969 C 275.625 191.542969 274.734375 193.375 274.644531 193.6875 C 274.609375 193.800781 274.53125 193.976562 274.464844 194.082031 C 274.398438 194.1875 274.214844 194.609375 274.0625 195.023438 L 273.777344 195.773438 L 273.824219 194.957031 C 273.882812 193.949219 274.324219 187.960938 274.4375 186.625 C 275.1875 177.945312 275.382812 167.054688 274.929688 158.855469 C 274.765625 155.871094 274.585938 153.460938 274.519531 153.300781 C 274.480469 153.210938 274.425781 152.804688 274.398438 152.402344 C 274.300781 150.921875 273.773438 145.78125 273.703125 145.582031 C 273.628906 145.382812 273.5 144.101562 273.417969 142.722656 C 273.25 140.023438 273.023438 137.183594 272.964844 137.046875 C 272.925781 136.957031 272.777344 135.433594 272.636719 133.664062 C 272.492188 131.890625 272.324219 130 272.265625 129.457031 C 271.929688 126.464844 271.542969 123.820312 271.410156 123.652344 C 271.378906 123.605469 271.285156 123.296875 271.203125 122.957031 C 271.054688 122.328125 270.765625 121.480469 270.679688 121.40625 C 270.652344 121.382812 270.546875 121.183594 270.441406 120.964844 C 269.898438 119.816406 269.058594 119.253906 267.847656 119.226562 C 267.398438 119.214844 266.972656 119.226562 266.90625 119.25 M 268.238281 120.539062 C 268.640625 120.707031 269.265625 121.429688 269.539062 122.042969 C 269.671875 122.34375 269.835938 122.707031 269.898438 122.847656 C 270.027344 123.128906 270.378906 124.707031 270.46875 125.410156 C 270.5 125.65625 270.554688 125.894531 270.589844 125.9375 C 270.652344 126.023438 270.824219 127.464844 271.042969 129.738281 C 271.191406 131.292969 271.191406 131.289062 271.042969 131.289062 C 270.902344 131.289062 270.671875 131.996094 270.671875 132.429688 C 270.671875 132.59375 270.636719 132.761719 270.597656 132.804688 C 270.34375 133.0625 270.277344 145.425781 270.507812 148.6875 C 270.550781 149.246094 270.636719 150.515625 270.707031 151.503906 C 270.90625 154.464844 271.167969 157.722656 271.292969 158.894531 C 271.359375 159.5 271.460938 160.4375 271.519531 160.976562 C 271.625 161.949219 271.578125 162.960938 271.410156 163.347656 C 271.371094 163.4375 271.1875 164.402344 271.007812 165.492188 C 270.824219 166.582031 270.636719 167.535156 270.59375 167.613281 C 270.550781 167.691406 270.382812 168.414062 270.222656 169.21875 C 270.058594 170.027344 269.902344 170.722656 269.871094 170.773438 C 269.84375 170.820312 269.660156 171.46875 269.472656 172.207031 C 269.28125 172.949219 268.976562 174.070312 268.792969 174.699219 C 268.609375 175.328125 268.4375 175.953125 268.40625 176.089844 C 268.378906 176.222656 268.328125 176.351562 268.296875 176.375 C 268.265625 176.394531 268.105469 176.875 267.9375 177.433594 C 267.773438 177.996094 267.585938 178.566406 267.523438 178.703125 C 267.464844 178.835938 267.277344 179.386719 267.105469 179.925781 C 266.9375 180.464844 266.75 180.980469 266.695312 181.070312 C 266.644531 181.160156 266.480469 181.601562 266.332031 182.050781 C 266.1875 182.5 266.035156 182.90625 266 182.953125 C 265.964844 183 265.796875 183.421875 265.628906 183.890625 C 265.464844 184.359375 265.28125 184.820312 265.222656 184.910156 C 265.164062 185 264.984375 185.421875 264.820312 185.847656 C 264.65625 186.273438 264.4375 186.808594 264.332031 187.03125 C 264.222656 187.257812 264.019531 187.730469 263.875 188.082031 C 263.574219 188.816406 263.546875 188.808594 263.304688 187.929688 C 263.207031 187.570312 263.074219 187.167969 263.015625 187.03125 C 262.953125 186.898438 262.757812 186.292969 262.574219 185.683594 C 262.394531 185.078125 262.171875 184.378906 262.082031 184.128906 C 261.996094 183.878906 261.824219 183.308594 261.707031 182.863281 C 261.585938 182.414062 261.460938 182.011719 261.421875 181.96875 C 261.386719 181.921875 261.222656 181.355469 261.058594 180.707031 C 260.890625 180.058594 260.726562 179.46875 260.691406 179.398438 C 260.628906 179.285156 260.285156 177.78125 260.023438 176.496094 C 259.96875 176.226562 259.894531 175.96875 259.863281 175.925781 C 259.792969 175.832031 259.210938 172.339844 259.210938 172.019531 C 259.210938 171.90625 259.179688 171.800781 259.144531 171.785156 C 258.96875 171.71875 258.433594 165.621094 258.222656 161.265625 C 258.121094 159.144531 258.183594 150.148438 258.304688 149.789062 C 258.347656 149.652344 258.425781 148.660156 258.476562 147.582031 C 258.613281 144.726562 258.984375 140.414062 259.125 140.070312 C 259.164062 139.980469 259.332031 138.933594 259.5 137.742188 C 259.667969 136.554688 259.835938 135.527344 259.875 135.457031 C 259.910156 135.386719 260.070312 134.6875 260.230469 133.902344 C 260.386719 133.117188 260.605469 132.179688 260.714844 131.820312 C 260.824219 131.460938 261.015625 130.78125 261.140625 130.308594 C 261.265625 129.835938 261.394531 129.433594 261.425781 129.410156 C 261.460938 129.386719 261.566406 129.09375 261.667969 128.757812 C 263.046875 124.078125 266.46875 119.792969 268.238281 120.539062 M 110.183594 128.671875 C 110.984375 129.621094 111.214844 131.261719 111.066406 134.882812 C 110.597656 146.148438 110.882812 151.113281 112.023438 151.554688 C 112.386719 151.695312 113.105469 151.601562 113.277344 151.390625 C 113.738281 150.824219 113.871094 149.589844 113.855469 145.96875 C 113.820312 137.96875 113.824219 135.792969 113.871094 135.414062 C 113.902344 135.1875 113.964844 134.527344 114.011719 133.945312 C 114.214844 131.460938 114.664062 129.566406 115.226562 128.84375 L 115.378906 128.644531 L 115.542969 128.972656 C 116.085938 130.03125 116.171875 132.011719 115.878906 136.84375 C 115.515625 142.777344 115.613281 149.371094 116.082031 150.828125 C 116.144531 151.019531 116.242188 151.359375 116.300781 151.585938 C 116.867188 153.738281 118.40625 153.972656 119.15625 152.023438 C 119.648438 150.742188 119.6875 149.425781 119.539062 139.007812 C 119.46875 133.949219 119.5 132.644531 119.746094 130.929688 C 119.878906 130.015625 120.015625 130.320312 120.269531 132.089844 C 120.738281 135.328125 120.9375 139.726562 121.207031 152.851562 C 121.28125 156.296875 121.222656 160.707031 121.085938 162.40625 C 120.886719 164.90625 120.78125 165.984375 120.722656 166.125 C 120.683594 166.214844 120.554688 167.003906 120.433594 167.878906 C 120.308594 168.757812 120.160156 169.710938 120.101562 170.003906 C 120.039062 170.296875 119.820312 171.34375 119.617188 172.332031 C 119.414062 173.320312 119.207031 174.222656 119.160156 174.335938 C 119.074219 174.542969 118.773438 175.816406 118.0625 178.953125 C 117.867188 179.8125 117.671875 180.636719 117.621094 180.792969 C 117.515625 181.125 117.167969 182.933594 117.035156 183.847656 C 116.980469 184.207031 116.90625 184.574219 116.867188 184.664062 C 116.75 184.9375 116.472656 186.992188 116.25 189.214844 C 116.183594 189.902344 116.089844 190.832031 116.042969 191.28125 C 115.933594 192.339844 115.933594 198.839844 116.042969 200.058594 C 116.089844 200.578125 116.183594 201.679688 116.253906 202.511719 C 116.429688 204.707031 116.699219 207.492188 116.796875 208.125 C 116.839844 208.429688 117.003906 209.742188 117.160156 211.046875 C 117.316406 212.347656 117.5 213.816406 117.570312 214.3125 C 117.835938 216.175781 117.921875 216.902344 118.136719 219.007812 C 118.257812 220.199219 118.390625 221.246094 118.429688 221.335938 C 118.492188 221.488281 118.726562 224.152344 118.921875 226.972656 C 118.96875 227.644531 119.027344 229.519531 119.054688 231.136719 L 119.101562 234.078125 L 118.792969 235.257812 C 118.625 235.910156 118.453125 236.496094 118.414062 236.566406 C 118.375 236.636719 118.195312 237.109375 118.019531 237.621094 C 117.839844 238.132812 117.660156 238.59375 117.617188 238.640625 C 117.578125 238.691406 117.441406 238.972656 117.316406 239.265625 C 116.367188 241.429688 114.691406 243.203125 113.585938 243.203125 C 112.578125 243.203125 111.207031 241.683594 110.363281 239.632812 C 110.195312 239.226562 110.03125 238.859375 110 238.816406 C 109.96875 238.769531 109.847656 238.421875 109.730469 238.039062 C 109.617188 237.65625 109.425781 237.03125 109.3125 236.648438 C 109.015625 235.683594 108.625 233.851562 108.351562 232.160156 C 107.796875 228.726562 107.800781 222.226562 108.359375 217.621094 C 108.605469 215.589844 108.9375 212.253906 109.050781 210.636719 C 109.125 209.605469 109.222656 208.648438 109.269531 208.511719 C 109.390625 208.164062 109.453125 201.253906 109.347656 199.976562 C 109.011719 195.957031 108.757812 194.195312 107.996094 190.625 C 107.878906 190.085938 107.785156 189.4375 107.785156 189.183594 C 107.785156 188.925781 107.746094 188.695312 107.703125 188.667969 C 107.652344 188.632812 107.621094 187.664062 107.621094 186.027344 C 107.621094 182.292969 107.429688 179.289062 107.09375 177.679688 C 106.898438 176.742188 106.394531 174.984375 106.175781 174.46875 C 106.058594 174.191406 105.875 173.710938 105.769531 173.398438 C 105.660156 173.085938 105.523438 172.757812 105.464844 172.664062 C 105.402344 172.570312 105.234375 172.183594 105.089844 171.804688 C 104.941406 171.421875 104.753906 170.964844 104.667969 170.78125 C 104.585938 170.601562 104.382812 170.066406 104.214844 169.59375 C 104.050781 169.125 103.890625 168.699219 103.855469 168.65625 C 103.742188 168.5 103.125 165.824219 102.949219 164.734375 C 102.714844 163.296875 102.789062 159.109375 103.078125 157.34375 C 103.457031 155.035156 103.675781 150.910156 103.746094 144.90625 C 103.777344 142.265625 103.832031 140.082031 103.867188 140.0625 C 103.90625 140.039062 103.9375 139.675781 103.9375 139.253906 C 103.9375 135.808594 104.726562 130.675781 105.4375 129.484375 L 105.644531 129.136719 L 105.710938 129.375 C 105.820312 129.769531 105.765625 132.832031 105.582031 136.3125 C 105.488281 138.109375 105.410156 139.894531 105.410156 140.277344 C 105.410156 140.660156 105.371094 141.011719 105.328125 141.058594 C 105.117188 141.265625 105.316406 148.292969 105.574219 149.828125 C 105.847656 151.457031 106.394531 152.039062 107.261719 151.621094 C 108.339844 151.101562 108.597656 148.847656 108.585938 140.070312 C 108.574219 132.136719 108.828125 129.585938 109.730469 128.574219 C 109.902344 128.378906 109.945312 128.390625 110.183594 128.671875 M 192.050781 138.808594 C 193.402344 138.90625 196.003906 139.195312 196.472656 139.296875 C 196.652344 139.335938 197.445312 139.496094 198.230469 139.652344 C 200.085938 140.019531 200.546875 140.125 200.648438 140.195312 C 200.691406 140.226562 201.28125 140.390625 201.957031 140.558594 C 202.632812 140.730469 203.226562 140.898438 203.277344 140.9375 C 203.324219 140.976562 203.855469 141.15625 204.453125 141.335938 C 205.050781 141.515625 205.582031 141.691406 205.628906 141.730469 C 205.679688 141.769531 206.035156 141.90625 206.417969 142.027344 C 206.800781 142.152344 207.261719 142.328125 207.441406 142.414062 C 207.621094 142.5 208.007812 142.664062 208.300781 142.773438 C 210.367188 143.5625 215.011719 145.914062 216.976562 147.175781 C 217.132812 147.273438 217.6875 147.628906 218.203125 147.960938 C 218.722656 148.289062 219.300781 148.671875 219.484375 148.808594 C 219.671875 148.941406 220.164062 149.292969 220.578125 149.585938 C 223.507812 151.644531 226.929688 154.929688 228.714844 157.382812 C 228.847656 157.5625 229 157.75 229.050781 157.792969 C 229.757812 158.402344 232.503906 163.222656 233.398438 165.421875 C 233.550781 165.800781 233.707031 166.148438 233.746094 166.199219 C 233.785156 166.246094 233.949219 166.660156 234.109375 167.121094 C 234.273438 167.578125 234.441406 168.019531 234.488281 168.101562 C 234.535156 168.179688 234.703125 168.671875 234.867188 169.1875 C 235.027344 169.703125 235.207031 170.234375 235.269531 170.371094 C 235.328125 170.503906 235.511719 171.148438 235.671875 171.800781 C 235.835938 172.453125 236 173.042969 236.039062 173.109375 C 236.078125 173.179688 236.246094 173.898438 236.414062 174.703125 C 236.578125 175.511719 236.746094 176.242188 236.785156 176.332031 C 236.90625 176.597656 237.417969 180.140625 237.683594 182.539062 C 237.820312 183.75 237.941406 187.429688 237.890625 188.789062 C 237.816406 190.902344 237.6875 192.804688 237.605469 193.117188 C 237.566406 193.273438 237.457031 194.027344 237.367188 194.792969 C 237.171875 196.453125 236.859375 198.449219 236.785156 198.507812 C 236.757812 198.53125 236.671875 198.859375 236.59375 199.242188 C 236.253906 200.902344 236.117188 201.496094 236.054688 201.617188 C 236.015625 201.683594 235.832031 202.3125 235.640625 203.003906 C 235.453125 203.699219 235.265625 204.304688 235.230469 204.347656 C 235.195312 204.390625 235.03125 204.871094 234.863281 205.410156 C 234.695312 205.949219 234.527344 206.425781 234.492188 206.472656 C 234.457031 206.515625 234.3125 206.878906 234.171875 207.277344 C 234.035156 207.679688 233.832031 208.195312 233.71875 208.425781 C 233.609375 208.660156 233.441406 209.050781 233.347656 209.292969 C 233.035156 210.089844 231.664062 212.878906 230.980469 214.109375 C 230.769531 214.488281 230.4375 215.085938 230.246094 215.433594 C 230.054688 215.78125 229.78125 216.242188 229.636719 216.457031 C 229.496094 216.671875 229.175781 217.171875 228.925781 217.566406 C 228.53125 218.195312 227.3125 219.945312 226.410156 221.183594 C 224.910156 223.238281 223.359375 224.921875 222.8125 225.09375 C 222.550781 225.171875 222.300781 225.265625 222.257812 225.300781 C 222.210938 225.335938 221.695312 225.5 221.109375 225.667969 C 220.523438 225.835938 220.007812 226 219.964844 226.03125 C 219.917969 226.066406 219.273438 226.25 218.53125 226.4375 C 217.789062 226.628906 217.125 226.8125 217.058594 226.847656 C 216.992188 226.882812 216.347656 227.046875 215.625 227.207031 C 214.90625 227.371094 214.257812 227.539062 214.183594 227.578125 C 214.113281 227.621094 213.394531 227.789062 212.589844 227.953125 C 211.78125 228.117188 210.886719 228.320312 210.59375 228.402344 C 210.300781 228.484375 209.414062 228.667969 208.628906 228.808594 C 207.839844 228.953125 207.121094 229.101562 207.03125 229.136719 C 206.878906 229.203125 205.261719 229.503906 203.878906 229.722656 C 203.542969 229.773438 203.246094 229.84375 203.226562 229.871094 C 203.203125 229.902344 202.191406 230.082031 200.972656 230.269531 C 199.757812 230.457031 198.671875 230.648438 198.558594 230.6875 C 198.445312 230.730469 197.414062 230.894531 196.269531 231.054688 C 195.121094 231.21875 194.105469 231.382812 194.015625 231.421875 C 193.925781 231.460938 193.558594 231.53125 193.199219 231.578125 C 191.023438 231.855469 189.359375 232.089844 188.859375 232.199219 C 188.542969 232.265625 187.273438 232.453125 186.035156 232.613281 C 184.796875 232.769531 183.691406 232.933594 183.582031 232.976562 C 183.46875 233.015625 183.0625 233.089844 182.679688 233.136719 C 180.980469 233.351562 179.023438 233.648438 178.875 233.714844 C 178.785156 233.753906 178.230469 233.863281 177.644531 233.953125 C 176.304688 234.164062 175.386719 234.339844 174.863281 234.488281 C 174.636719 234.550781 174 234.714844 173.445312 234.851562 C 172.890625 234.984375 172.320312 235.148438 172.175781 235.214844 C 172.03125 235.277344 171.644531 235.425781 171.3125 235.542969 C 168.085938 236.675781 167.792969 239.042969 170.710938 240.335938 C 171.015625 240.472656 171.410156 240.648438 171.589844 240.730469 C 171.769531 240.8125 172.359375 240.992188 172.898438 241.132812 C 173.4375 241.273438 174.074219 241.441406 174.3125 241.503906 C 177.222656 242.308594 188.921875 242.226562 191.273438 241.390625 C 191.386719 241.351562 191.664062 241.292969 191.890625 241.265625 C 192.664062 241.167969 195.082031 240.730469 195.246094 240.65625 C 195.335938 240.617188 195.519531 240.5625 195.652344 240.539062 C 196.433594 240.402344 198.246094 239.992188 198.371094 239.925781 C 198.453125 239.882812 199.089844 239.710938 199.789062 239.542969 C 200.484375 239.378906 201.167969 239.195312 201.300781 239.136719 C 201.4375 239.074219 202.023438 238.894531 202.609375 238.730469 C 203.195312 238.570312 203.691406 238.410156 203.714844 238.378906 C 203.738281 238.347656 204.21875 238.179688 204.78125 238.007812 C 205.34375 237.835938 205.839844 237.667969 205.886719 237.632812 C 205.929688 237.59375 206.40625 237.414062 206.941406 237.230469 C 207.476562 237.046875 207.953125 236.863281 208.003906 236.824219 C 208.054688 236.789062 208.371094 236.652344 208.707031 236.53125 C 209.046875 236.40625 209.46875 236.222656 209.652344 236.121094 C 209.832031 236.019531 210.070312 235.910156 210.183594 235.875 C 210.667969 235.726562 213.285156 234.398438 214.765625 233.546875 C 215.628906 233.054688 217.609375 231.738281 218.386719 231.144531 C 218.746094 230.871094 219.160156 230.554688 219.308594 230.441406 C 220.425781 229.585938 222.316406 227.882812 223.425781 226.730469 L 224.164062 225.964844 L 225.050781 225.664062 C 225.539062 225.496094 225.976562 225.332031 226.019531 225.296875 C 226.066406 225.261719 226.429688 225.117188 226.828125 224.976562 C 227.226562 224.839844 227.652344 224.671875 227.769531 224.605469 C 227.886719 224.539062 228.300781 224.359375 228.679688 224.203125 C 229.535156 223.855469 231.09375 223.144531 231.238281 223.039062 C 231.292969 222.992188 231.582031 222.855469 231.875 222.726562 C 232.167969 222.601562 232.496094 222.433594 232.609375 222.359375 C 232.722656 222.285156 233.089844 222.085938 233.429688 221.921875 C 233.765625 221.753906 234.207031 221.523438 234.410156 221.40625 C 235.863281 220.570312 236.402344 220.253906 236.867188 219.960938 C 237.691406 219.445312 240.375 217.664062 240.878906 217.300781 C 241.125 217.121094 241.417969 216.910156 241.53125 216.832031 C 241.859375 216.601562 243.570312 215.316406 243.910156 215.046875 C 244.082031 214.914062 244.417969 214.648438 244.65625 214.460938 C 244.894531 214.277344 245.515625 213.773438 246.03125 213.34375 C 246.546875 212.914062 246.976562 212.574219 246.988281 212.582031 C 247.082031 212.675781 245.445312 217.613281 245.226562 217.898438 C 245.191406 217.949219 245.074219 218.207031 244.972656 218.476562 C 244.523438 219.644531 242.835938 222.902344 242.074219 224.070312 C 240.046875 227.191406 239.078125 228.492188 236.957031 230.933594 C 234.496094 233.765625 231.0625 236.964844 227.75 239.507812 C 227.25 239.894531 227.042969 240.046875 225.554688 241.109375 C 224.496094 241.863281 222.25 243.347656 222.164062 243.347656 C 222.132812 243.347656 221.992188 243.433594 221.855469 243.535156 C 221.714844 243.640625 221.433594 243.816406 221.234375 243.929688 C 221.03125 244.042969 220.378906 244.417969 219.78125 244.761719 C 217.664062 245.988281 214.410156 247.570312 211.964844 248.558594 C 211.558594 248.722656 211.230469 248.90625 211.207031 248.980469 C 211.179688 249.058594 210.964844 249.179688 210.707031 249.261719 C 210.453125 249.339844 209.984375 249.515625 209.664062 249.648438 C 208.925781 249.957031 207.582031 250.445312 206.214844 250.910156 C 205.628906 251.105469 205.074219 251.304688 204.984375 251.347656 C 204.425781 251.617188 200.058594 252.769531 197.660156 253.28125 C 192.4375 254.394531 189.011719 254.53125 181.738281 253.917969 C 180.433594 253.808594 179.179688 253.683594 178.957031 253.640625 C 178.730469 253.597656 178.140625 253.523438 177.644531 253.476562 C 175.941406 253.320312 173.144531 252.976562 172.980469 252.902344 C 172.890625 252.863281 172.265625 252.738281 171.589844 252.621094 C 170.914062 252.507812 170.160156 252.359375 169.910156 252.296875 C 168.324219 251.894531 166.613281 251.421875 166.492188 251.351562 C 166.316406 251.25 164.585938 250.699219 164.445312 250.699219 C 164.390625 250.699219 164.34375 250.664062 164.34375 250.625 C 164.34375 250.585938 163.988281 250.4375 163.554688 250.289062 C 163.121094 250.144531 162.597656 249.941406 162.390625 249.839844 C 162.183594 249.738281 161.699219 249.53125 161.316406 249.382812 C 160.933594 249.234375 160.601562 249.085938 160.578125 249.054688 C 160.554688 249.019531 160.222656 248.855469 159.839844 248.6875 C 159.460938 248.515625 159.128906 248.351562 159.105469 248.320312 C 159.085938 248.292969 158.714844 248.097656 158.289062 247.886719 C 157.421875 247.464844 156.320312 246.867188 156.148438 246.730469 C 156.085938 246.679688 155.824219 246.523438 155.566406 246.386719 C 155.308594 246.246094 154.996094 246.0625 154.871094 245.976562 C 154.558594 245.757812 153.6875 245.210938 153.027344 244.816406 C 152.726562 244.632812 152.476562 244.449219 152.476562 244.40625 C 152.476562 244.363281 152.4375 244.328125 152.394531 244.328125 C 152.292969 244.328125 151.433594 243.769531 151.234375 243.578125 C 151.15625 243.5 150.972656 243.375 150.824219 243.300781 C 150.675781 243.222656 150.417969 243.046875 150.253906 242.90625 C 150.085938 242.769531 149.613281 242.414062 149.199219 242.121094 C 148.789062 241.832031 148.339844 241.488281 148.207031 241.363281 C 148.074219 241.242188 147.820312 241.042969 147.640625 240.925781 C 147.464844 240.808594 147.320312 240.679688 147.320312 240.640625 C 147.320312 240.601562 147.199219 240.496094 147.054688 240.40625 C 146.601562 240.132812 144.355469 237.933594 144.234375 237.648438 C 144.171875 237.5 143.964844 237.222656 143.773438 237.035156 C 143.21875 236.484375 141.578125 234.664062 141.195312 234.171875 C 139.925781 232.535156 139.171875 231.5 138.625 230.648438 C 138.398438 230.289062 138.054688 229.753906 137.863281 229.460938 C 137.101562 228.285156 135.574219 225.367188 134.917969 223.832031 C 134.757812 223.449219 134.59375 223.101562 134.558594 223.054688 C 134.523438 223.007812 134.375 222.644531 134.234375 222.246094 C 134.089844 221.847656 133.890625 221.332031 133.785156 221.101562 C 133.679688 220.871094 133.492188 220.351562 133.363281 219.949219 C 133.238281 219.542969 133.109375 219.195312 133.082031 219.171875 C 133 219.109375 132.28125 216.691406 131.902344 215.210938 C 131.71875 214.492188 131.542969 213.886719 131.515625 213.863281 C 131.289062 213.683594 130.199219 207.398438 129.847656 204.257812 C 129.441406 200.625 129.515625 191.285156 129.957031 190.5 C 129.996094 190.429688 130.054688 190.136719 130.085938 189.847656 C 130.164062 189.152344 130.515625 186.886719 130.617188 186.421875 C 130.980469 184.769531 131.453125 182.84375 131.519531 182.730469 C 131.5625 182.652344 131.667969 182.324219 131.757812 181.996094 C 132.015625 181.003906 132.191406 180.421875 132.257812 180.335938 C 132.292969 180.289062 132.476562 179.777344 132.667969 179.191406 C 132.859375 178.609375 133.042969 178.09375 133.078125 178.046875 C 133.109375 178.003906 133.277344 177.597656 133.445312 177.148438 C 133.617188 176.699219 133.785156 176.296875 133.820312 176.25 C 133.855469 176.207031 133.957031 175.980469 134.046875 175.75 C 134.683594 174.144531 136.285156 171.15625 138.046875 168.289062 C 138.660156 167.292969 139.8125 165.636719 140.761719 164.378906 C 141.285156 163.691406 141.835938 162.957031 141.984375 162.75 C 142.132812 162.542969 142.371094 162.242188 142.515625 162.078125 C 142.660156 161.914062 142.941406 161.582031 143.144531 161.339844 C 148.035156 155.507812 154.398438 150.160156 160.742188 146.539062 C 161.214844 146.269531 161.878906 145.894531 162.214844 145.699219 C 162.816406 145.359375 166.324219 143.621094 166.417969 143.621094 C 166.441406 143.621094 166.769531 143.480469 167.144531 143.304688 C 167.515625 143.128906 168.097656 142.890625 168.433594 142.769531 C 168.769531 142.648438 169.082031 142.523438 169.128906 142.488281 C 169.175781 142.453125 169.621094 142.285156 170.117188 142.113281 C 170.609375 141.945312 171.050781 141.777344 171.097656 141.742188 C 171.144531 141.710938 171.714844 141.527344 172.367188 141.335938 C 173.019531 141.144531 173.589844 140.960938 173.636719 140.925781 C 173.679688 140.890625 174.269531 140.726562 174.945312 140.566406 C 175.621094 140.402344 176.234375 140.234375 176.308594 140.195312 C 176.386719 140.152344 177.140625 139.984375 177.988281 139.824219 C 178.835938 139.664062 179.695312 139.492188 179.898438 139.449219 C 182.457031 138.867188 188.515625 138.546875 192.050781 138.808594 M 112.492188 144.683594 C 112.523438 146.683594 112.53125 148.296875 112.503906 148.273438 C 112.3125 148.09375 112.089844 140.03125 112.257812 139.457031 C 112.355469 139.125 112.425781 140.730469 112.492188 144.683594 M 272.160156 144.195312 C 272.421875 144.851562 272.585938 151.234375 272.414062 153.996094 L 272.355469 154.933594 L 272.25 153.789062 C 271.957031 150.558594 271.78125 146.804688 271.707031 142.316406 L 271.675781 140.3125 L 271.894531 142.191406 C 272.015625 143.226562 272.132812 144.125 272.160156 144.195312 M 273.621094 159.996094 C 273.8125 163.101562 273.847656 164.222656 273.839844 167.265625 C 273.835938 169.019531 273.820312 170.214844 273.804688 169.921875 C 273.785156 169.628906 273.738281 169.355469 273.695312 169.3125 C 273.652344 169.269531 273.621094 169.085938 273.621094 168.90625 C 273.621094 168.179688 273.03125 161.863281 272.945312 161.691406 C 272.878906 161.554688 272.878906 161.460938 272.949219 161.324219 C 273.035156 161.15625 273.359375 158.199219 273.382812 157.351562 C 273.398438 156.910156 273.5 158.046875 273.621094 159.996094 M 272.269531 168.53125 C 272.914062 175.328125 273.023438 184.6875 272.550781 192.667969 C 272.460938 194.140625 272.273438 195.664062 272.144531 195.933594 C 271.996094 196.246094 271.8125 198.316406 271.765625 200.222656 C 271.703125 202.699219 271.980469 210.484375 272.144531 210.882812 C 272.179688 210.972656 272.328125 213.003906 272.472656 215.398438 C 272.617188 217.796875 272.789062 220.605469 272.851562 221.648438 C 273.074219 225.164062 273.109375 226.226562 273.109375 229.054688 C 273.113281 231.800781 273.0625 233.066406 272.890625 234.566406 C 272.84375 234.972656 272.765625 235.652344 272.71875 236.078125 C 272.59375 237.175781 272.230469 239.339844 272.144531 239.496094 C 272.101562 239.570312 271.972656 240.035156 271.855469 240.53125 C 271.449219 242.199219 270.40625 244.542969 269.617188 245.554688 C 268.015625 247.597656 266.777344 247.863281 265.605469 246.40625 C 264.917969 245.546875 264.386719 244.402344 264.042969 243.019531 C 263.898438 242.460938 263.753906 241.925781 263.710938 241.835938 C 263.539062 241.449219 263.164062 238.347656 263.085938 236.667969 C 263.058594 236.027344 263.003906 235.480469 262.964844 235.457031 C 262.875 235.402344 262.875 230.222656 262.964844 230.164062 C 263.003906 230.140625 263.058594 229.523438 263.085938 228.792969 C 263.175781 226.523438 263.585938 221.722656 263.710938 221.417969 C 263.75 221.328125 263.917969 220.097656 264.082031 218.683594 C 264.246094 217.265625 264.417969 215.980469 264.457031 215.824219 C 264.542969 215.5 264.960938 212.214844 265.105469 210.71875 C 265.160156 210.179688 265.234375 209.664062 265.273438 209.574219 C 265.765625 208.453125 265.765625 197.265625 265.277344 196.097656 C 265.238281 196.007812 265.105469 195.3125 264.984375 194.550781 C 264.863281 193.792969 264.691406 192.910156 264.605469 192.59375 C 264.519531 192.273438 264.375 191.722656 264.285156 191.371094 L 264.121094 190.726562 L 264.285156 190.285156 C 264.375 190.042969 264.503906 189.761719 264.566406 189.664062 C 264.632812 189.5625 264.800781 189.1875 264.945312 188.828125 C 265.085938 188.46875 265.230469 188.140625 265.269531 188.09375 C 265.304688 188.050781 265.46875 187.664062 265.628906 187.238281 C 265.792969 186.808594 265.976562 186.367188 266.042969 186.25 C 266.109375 186.132812 266.292969 185.675781 266.453125 185.234375 C 266.613281 184.792969 266.777344 184.394531 266.816406 184.34375 C 266.855469 184.296875 267.027344 183.851562 267.195312 183.355469 C 267.367188 182.863281 267.539062 182.417969 267.574219 182.367188 C 267.644531 182.273438 268.132812 180.859375 268.714844 179.070312 C 268.898438 178.507812 269.097656 177.9375 269.15625 177.804688 C 269.214844 177.667969 269.382812 177.117188 269.527344 176.578125 C 269.675781 176.039062 269.824219 175.5625 269.859375 175.515625 C 269.894531 175.472656 270.074219 174.828125 270.261719 174.085938 C 270.449219 173.34375 270.636719 172.664062 270.675781 172.574219 C 270.773438 172.375 271.023438 171.339844 271.207031 170.410156 C 271.28125 170.03125 271.375 169.6875 271.410156 169.648438 C 271.445312 169.609375 271.601562 168.933594 271.75 168.152344 C 272.0625 166.507812 272.074219 166.519531 272.269531 168.53125 M 301.230469 186.195312 C 301.746094 186.921875 302.382812 188.21875 302.640625 189.074219 C 302.765625 189.480469 302.890625 189.847656 302.925781 189.890625 C 303.167969 190.230469 303.402344 192.78125 303.320312 194.195312 C 303.128906 197.363281 301.671875 200.289062 299.703125 201.441406 C 297.480469 202.742188 295.761719 199.695312 296.441406 195.648438 C 296.59375 194.757812 296.703125 194.242188 296.785156 194.054688 C 296.824219 193.96875 296.972656 193.488281 297.113281 192.996094 C 297.25 192.5 297.492188 191.816406 297.648438 191.472656 C 297.800781 191.132812 297.929688 190.820312 297.929688 190.785156 C 297.929688 190.46875 300.664062 185.683594 300.847656 185.683594 C 300.859375 185.683594 301.03125 185.914062 301.230469 186.195312 M 73.5 190.148438 C 73.664062 190.277344 73.878906 190.4375 73.980469 190.503906 C 76.089844 191.910156 78.65625 195.121094 79.632812 197.578125 C 79.777344 197.933594 79.921875 198.257812 79.957031 198.304688 C 80.054688 198.429688 80.425781 200.023438 80.523438 200.738281 C 81.167969 205.496094 78.421875 209.027344 75.296875 207.457031 C 71.738281 205.664062 69.953125 198.742188 71.644531 193.28125 C 71.75 192.945312 71.898438 192.429688 71.980469 192.136719 C 72.109375 191.683594 72.742188 190.066406 72.878906 189.84375 C 72.933594 189.753906 73.09375 189.832031 73.5 190.148438 M 221.152344 227.050781 C 221.152344 227.183594 217.902344 229.921875 217.296875 230.296875 C 217.175781 230.371094 217.027344 230.480469 216.964844 230.539062 C 216.863281 230.632812 216.003906 231.210938 214.726562 232.042969 C 213.996094 232.515625 212.105469 233.558594 211.207031 233.984375 C 210.890625 234.132812 210.355469 234.386719 210.019531 234.546875 C 208.988281 235.035156 207.957031 235.488281 207.441406 235.675781 C 207.171875 235.773438 206.765625 235.9375 206.539062 236.035156 C 206.316406 236.136719 205.761719 236.339844 205.3125 236.484375 C 204.863281 236.632812 204.457031 236.78125 204.410156 236.816406 C 204.367188 236.855469 203.867188 237.019531 203.304688 237.183594 C 202.742188 237.351562 202.273438 237.519531 202.257812 237.558594 C 202.242188 237.597656 202.179688 237.628906 202.121094 237.628906 C 202 237.628906 199.625 238.273438 199.527344 238.332031 C 199.449219 238.382812 198.480469 238.625 197.453125 238.855469 C 197.003906 238.957031 196.597656 239.066406 196.554688 239.101562 C 196.507812 239.132812 195.734375 239.296875 194.835938 239.460938 C 193.933594 239.625 193.125 239.796875 193.035156 239.839844 C 192.84375 239.929688 189.847656 240.363281 188.492188 240.492188 C 187.972656 240.542969 187.476562 240.617188 187.386719 240.65625 C 186.542969 241.011719 177.21875 241.007812 176.746094 240.652344 C 176.699219 240.617188 176.441406 240.566406 176.171875 240.535156 C 175.054688 240.402344 172.945312 239.953125 172.859375 239.828125 C 172.835938 239.796875 172.664062 239.730469 172.476562 239.679688 C 171.585938 239.441406 170.308594 238.679688 170.078125 238.253906 C 169.789062 237.710938 171 236.863281 172.777344 236.359375 C 173.203125 236.238281 173.59375 236.109375 173.640625 236.070312 C 173.6875 236.035156 174.535156 235.835938 175.523438 235.628906 C 178.007812 235.109375 178.347656 235.046875 179.980469 234.808594 C 180.765625 234.695312 181.484375 234.566406 181.574219 234.527344 C 181.664062 234.484375 182.753906 234.320312 183.988281 234.164062 C 185.226562 234.003906 186.480469 233.820312 186.773438 233.753906 C 187.066406 233.691406 187.765625 233.578125 188.328125 233.507812 C 190.691406 233.207031 191.816406 233.042969 191.96875 232.980469 C 192.0625 232.941406 193.128906 232.777344 194.34375 232.613281 C 195.558594 232.449219 196.628906 232.28125 196.71875 232.242188 C 196.808594 232.203125 197.527344 232.078125 198.3125 231.960938 C 200.976562 231.570312 201.382812 231.503906 201.589844 231.425781 C 201.699219 231.382812 202.621094 231.214844 203.632812 231.050781 C 204.648438 230.886719 205.511719 230.722656 205.558594 230.6875 C 205.601562 230.652344 205.804688 230.601562 206.007812 230.570312 C 206.984375 230.421875 209.097656 230.019531 209.242188 229.953125 C 209.332031 229.914062 210.171875 229.730469 211.105469 229.550781 C 212.039062 229.367188 212.867188 229.183594 212.945312 229.140625 C 213.023438 229.097656 213.734375 228.929688 214.519531 228.761719 C 215.308594 228.597656 215.972656 228.4375 215.996094 228.410156 C 216.015625 228.378906 216.644531 228.214844 217.386719 228.042969 C 218.128906 227.867188 218.828125 227.6875 218.941406 227.640625 C 219.453125 227.425781 221.152344 226.972656 221.152344 227.050781 M 106.757812 230.984375 C 107.140625 233.960938 107.921875 237.585938 108.429688 238.71875 C 108.511719 238.90625 108.648438 239.261719 108.726562 239.507812 C 109.203125 241.007812 110.523438 243.15625 111.386719 243.839844 C 112.214844 244.496094 114.039062 244.894531 114.503906 244.523438 C 114.566406 244.472656 114.765625 244.382812 114.945312 244.328125 C 115.910156 244.019531 117.664062 242.125 118.175781 240.832031 C 118.234375 240.6875 118.300781 240.582031 118.316406 240.597656 C 118.390625 240.671875 117.761719 243.027344 117.621094 243.21875 C 117.585938 243.265625 117.453125 243.570312 117.328125 243.898438 C 116.03125 247.285156 113.152344 248.820312 110.976562 247.285156 C 107.976562 245.164062 106.5625 239.996094 106.558594 231.105469 C 106.558594 229.804688 106.601562 229.777344 106.757812 230.984375 "/></g><g style="fill:#272727;fill-opacity:1;"><g transform="translate(130.601919, 93.628251)"><path style="stroke:none" d="M 12.171875 -6.859375 C 12.171875 -5.867188 11.988281 -4.957031 11.625 -4.125 C 11.25 -3.269531 10.742188 -2.539062 10.109375 -1.9375 C 9.484375 -1.332031 8.738281 -0.863281 7.875 -0.53125 C 7.007812 -0.175781 6.085938 0 5.109375 0 L 1.515625 0 L 1.515625 -13.734375 L 5.109375 -13.734375 C 6.085938 -13.734375 7.007812 -13.5625 7.875 -13.21875 C 8.738281 -12.875 9.484375 -12.398438 10.109375 -11.796875 C 10.742188 -11.179688 11.25 -10.457031 11.625 -9.625 C 11.988281 -8.78125 12.171875 -7.859375 12.171875 -6.859375 Z M 10.796875 -6.859375 C 10.796875 -8.421875 10.242188 -9.726562 9.140625 -10.78125 C 8.066406 -11.800781 6.734375 -12.3125 5.140625 -12.3125 L 2.921875 -12.3125 L 2.921875 -1.40625 L 5.140625 -1.40625 C 6.734375 -1.40625 8.066406 -1.921875 9.140625 -2.953125 C 10.242188 -3.992188 10.796875 -5.296875 10.796875 -6.859375 Z M 10.796875 -6.859375 "/></g></g><g style="fill:#272727;fill-opacity:1;"><g transform="translate(147.918843, 93.628251)"><path style="stroke:none" d="M 2.921875 0 L 1.515625 0 L 1.515625 -13.734375 L 2.921875 -13.734375 Z M 2.921875 0 "/></g></g><g style="fill:#272727;fill-opacity:1;"><g transform="translate(156.598854, 93.628251)"><path style="stroke:none" d="M 2.921875 -10.109375 L 2.921875 0 L 1.515625 0 L 1.515625 -14.59375 L 9.21875 -3.640625 L 9.21875 -13.734375 L 10.640625 -13.734375 L 10.640625 0.84375 Z M 2.921875 -10.109375 "/></g></g><g style="fill:#272727;fill-opacity:1;"><g transform="translate(172.987513, 93.628251)"><path style="stroke:none" d="M 9.671875 0 L 1.515625 0 L 1.515625 -13.734375 L 9.671875 -13.734375 L 9.671875 -12.421875 L 2.921875 -12.421875 L 2.921875 -7.53125 L 9.46875 -7.53125 L 9.46875 -6.203125 L 2.921875 -6.203125 L 2.921875 -1.3125 L 9.671875 -1.3125 Z M 9.671875 0 "/></g></g><g style="fill:#272727;fill-opacity:1;"><g transform="translate(188.407544, 93.628251)"><path style="stroke:none" d=""/></g></g><g style="fill:#272727;fill-opacity:1;"><g transform="translate(198.096547, 93.628251)"><path style="stroke:none" d="M 9.671875 0 L 1.515625 0 L 1.515625 -13.734375 L 9.671875 -13.734375 L 9.671875 -12.421875 L 2.921875 -12.421875 L 2.921875 -7.53125 L 9.46875 -7.53125 L 9.46875 -6.203125 L 2.921875 -6.203125 L 2.921875 -1.3125 L 9.671875 -1.3125 Z M 9.671875 0 "/></g></g><g style="fill:#272727;fill-opacity:1;"><g transform="translate(213.516578, 93.628251)"><path style="stroke:none" d="M 3.734375 -5.046875 L 8.71875 -5.046875 L 6.234375 -11.359375 Z M 12.25 0 L 10.71875 0 L 9.25 -3.734375 L 3.203125 -3.734375 L 1.734375 0 L 0.203125 0 L 6.234375 -14.671875 Z M 12.25 0 "/></g></g><g style="fill:#272727;fill-opacity:1;"><g transform="translate(230.207922, 93.628251)"><path style="stroke:none" d="M 5.328125 -6.484375 C 2.523438 -7.128906 1.125 -8.328125 1.125 -10.078125 C 1.125 -11.367188 1.578125 -12.335938 2.484375 -12.984375 C 3.378906 -13.609375 4.4375 -13.921875 5.65625 -13.921875 C 8.332031 -13.921875 9.921875 -12.925781 10.421875 -10.9375 L 8.875 -10.9375 C 8.613281 -12.125 7.539062 -12.71875 5.65625 -12.71875 C 4.332031 -12.71875 3.410156 -12.328125 2.890625 -11.546875 C 2.679688 -11.253906 2.578125 -10.882812 2.578125 -10.4375 C 2.578125 -9.59375 3.035156 -8.941406 3.953125 -8.484375 C 4.390625 -8.253906 5.304688 -7.957031 6.703125 -7.59375 C 8.097656 -7.226562 9.113281 -6.820312 9.75 -6.375 C 10.625 -5.757812 11.0625 -4.894531 11.0625 -3.78125 C 11.0625 -2.394531 10.515625 -1.34375 9.421875 -0.625 C 8.515625 -0.03125 7.382812 0.265625 6.03125 0.265625 C 2.988281 0.265625 1.226562 -0.890625 0.75 -3.203125 L 2.421875 -3.203125 C 2.679688 -1.753906 3.882812 -1.03125 6.03125 -1.03125 C 7.570312 -1.03125 8.644531 -1.453125 9.25 -2.296875 C 9.488281 -2.640625 9.609375 -3.097656 9.609375 -3.671875 C 9.609375 -4.234375 9.382812 -4.695312 8.9375 -5.0625 C 8.3125 -5.570312 7.109375 -6.046875 5.328125 -6.484375 Z M 5.328125 -6.484375 "/></g></g><g style="fill:#272727;fill-opacity:1;"><g transform="translate(246.031541, 93.628251)"><path style="stroke:none" d="M 6.828125 -6.453125 L 6.828125 0 L 5.40625 0 L 5.40625 -6.453125 L 0.203125 -13.734375 L 2.015625 -13.734375 L 6.109375 -7.859375 L 10.21875 -13.734375 L 12.015625 -13.734375 Z M 6.828125 -6.453125 "/></g></g></g></svg>